<svg width="32" height="32" xmlns="http://www.w3.org/2000/svg">

 <g>
  <title>background</title>
  <rect fill="none" id="canvas_background" height="402" width="582" y="-1" x="-1"/>
 </g>
 <g>
  <title>Layer 1</title>
  <path fill="#ec008c" transform="rotate(45, 16.046, 16.046)" d="m28.045977,14.045977l-10,0l0,-10c0,-1.104 -0.896,-2 -2,-2s-2,0.896 -2,2l0,10l-10,0c-1.104,0 -2,0.896 -2,2s0.896,2 2,2l10,0l0,10c0,1.104 0.896,2 2,2s2,-0.896 2,-2l0,-10l10,0c1.104,0 2,-0.896 2,-2s-0.896,-2 -2,-2z"/>
 </g>
</svg>